<svg width="138" height="35" viewBox="0 0 138 35" fill="none" xmlns="http://www.w3.org/2000/svg">
<path d="M11.7598 11.3691H7.55859V2H2.28516V27.5938H11.7949C14.8184 27.5938 17.1504 26.9199 18.791 25.5723C20.4316 24.2246 21.252 22.3203 21.252 19.8594C21.252 18.1133 20.8711 16.6543 20.1094 15.4824C19.3594 14.3223 18.2168 13.3965 16.6816 12.7051L22.2188 2.24609V2H16.5586L11.7598 11.3691ZM7.55859 15.6406H11.8125C13.1367 15.6406 14.1621 15.9746 14.8887 16.6426C15.6152 17.3223 15.9785 18.2539 15.9785 19.4375C15.9785 20.6445 15.6328 21.5938 14.9414 22.2852C14.2617 22.9766 13.2129 23.3223 11.7949 23.3223H7.55859V15.6406ZM33.6973 1.64844C30.9082 1.64844 28.6348 2.50391 26.877 4.21484C25.1309 5.92578 24.2578 8.20508 24.2578 11.0527V11.5449C24.2578 13.4551 24.627 15.1602 25.3652 16.6602C26.1035 18.1719 27.1465 19.332 28.4941 20.1406C29.8535 20.9609 31.4004 21.3711 33.1348 21.3711C35.7363 21.3711 37.7812 20.5508 39.2695 18.9102C40.7695 17.2695 41.5195 14.9434 41.5195 11.9316V9.85742H29.4082C29.5723 8.61523 30.0645 7.61914 30.8848 6.86914C31.7168 6.11914 32.7656 5.74414 34.0312 5.74414C35.9883 5.74414 37.5176 6.45312 38.6191 7.87109L41.1152 5.07617C40.3535 3.99805 39.3223 3.1543 38.0215 2.54492C36.7207 1.94727 35.2793 1.64844 33.6973 1.64844ZM33.1172 17.2578C32.1094 17.2578 31.2891 16.918 30.6562 16.2383C30.0352 15.5586 29.6367 14.5859 29.4609 13.3203H36.5273V13.7246C36.5039 14.8496 36.1992 15.7168 35.6133 16.3262C35.0273 16.9473 34.1953 17.2578 33.1172 17.2578ZM65.7773 14.2168C65.7773 11.6973 65.332 9.48828 64.4414 7.58984C63.5508 5.69141 62.2734 4.22656 60.6094 3.19531C58.957 2.16406 57.0586 1.64844 54.9141 1.64844C52.793 1.64844 50.9004 2.1582 49.2363 3.17773C47.5723 4.19727 46.2832 5.65039 45.3691 7.53711C44.4551 9.43555 43.9922 11.6152 43.9805 14.0762V15.3418C43.9805 17.8613 44.4316 20.0762 45.334 21.9863C46.248 23.9082 47.5312 25.3789 49.1836 26.3984C50.8477 27.4297 52.7461 27.9453 54.8789 27.9453C57.0117 27.9453 58.9043 27.4297 60.5566 26.3984C62.2207 25.3789 63.5039 23.9082 64.4062 21.9863C65.3203 20.0762 65.7773 17.8672 65.7773 15.3594V14.2168ZM60.4336 15.377C60.4336 18.0605 59.9531 20.0996 58.9922 21.4941C58.0312 22.8887 56.6602 23.5859 54.8789 23.5859C53.1094 23.5859 51.7441 22.8945 50.7832 21.5117C49.8223 20.1406 49.3359 18.125 49.3242 15.4648V14.2168C49.3242 11.6035 49.8047 9.57617 50.7656 8.13477C51.7266 6.69336 53.1094 5.97266 54.9141 5.97266C56.6836 5.97266 58.043 6.66406 58.9922 8.04688C59.9414 9.44141 60.4219 11.4688 60.4336 14.1289V15.377ZM79.9629 16.2559C79.2715 16.3496 78.6621 16.3965 78.1348 16.3965C76.2129 16.3965 74.9531 15.7461 74.3555 14.4453V2H69.2754V21.0195H74.0742L74.2148 18.752C75.2344 20.498 76.6465 21.3711 78.4512 21.3711C79.0137 21.3711 79.541 21.2949 80.0332 21.1426L79.9629 16.2559ZM81.2812 11.6504C81.2812 14.6152 81.9434 16.9766 83.2676 18.7344C84.6035 20.4922 86.4258 21.3711 88.7344 21.3711C90.5859 21.3711 92.1152 20.6797 93.3223 19.2969V29H98.4199V2H93.832L93.5859 4.02148C92.3203 2.43945 90.6914 1.64844 88.6992 1.64844C86.4609 1.64844 84.6621 2.52734 83.3027 4.28516C81.9551 6.05469 81.2812 8.50977 81.2812 11.6504ZM86.3613 11.2812C86.3613 9.5 86.6719 8.13477 87.293 7.18555C87.9141 6.23633 88.8164 5.76172 90 5.76172C91.5703 5.76172 92.6777 6.42383 93.3223 7.74805V15.2539C92.6895 16.5781 91.5938 17.2402 90.0352 17.2402C87.5859 17.2402 86.3613 15.2539 86.3613 11.2812ZM111.111 1.64844C108.322 1.64844 106.049 2.50391 104.291 4.21484C102.545 5.92578 101.672 8.20508 101.672 11.0527V11.5449C101.672 13.4551 102.041 15.1602 102.779 16.6602C103.518 18.1719 104.561 19.332 105.908 20.1406C107.268 20.9609 108.814 21.3711 110.549 21.3711C113.15 21.3711 115.195 20.5508 116.684 18.9102C118.184 17.2695 118.934 14.9434 118.934 11.9316V9.85742H106.822C106.986 8.61523 107.479 7.61914 108.299 6.86914C109.131 6.11914 110.18 5.74414 111.445 5.74414C113.402 5.74414 114.932 6.45312 116.033 7.87109L118.529 5.07617C117.768 3.99805 116.736 3.1543 115.436 2.54492C114.135 1.94727 112.693 1.64844 111.111 1.64844ZM110.531 17.2578C109.523 17.2578 108.703 16.918 108.07 16.2383C107.449 15.5586 107.051 14.5859 106.875 13.3203H113.941V13.7246C113.918 14.8496 113.613 15.7168 113.027 16.3262C112.441 16.9473 111.609 17.2578 110.531 17.2578ZM132.521 16.2559C131.83 16.3496 131.221 16.3965 130.693 16.3965C128.771 16.3965 127.512 15.7461 126.914 14.4453V2H121.834V21.0195H126.633L126.773 18.752C127.793 20.498 129.205 21.3711 131.01 21.3711C131.572 21.3711 132.1 21.2949 132.592 21.1426L132.521 16.2559Z" fill="black"/>
</svg>
