<svg width="124" height="46" viewBox="0 0 124 46" fill="none" xmlns="http://www.w3.org/2000/svg">
<path d="M57.5 19.3418C56.8789 19.248 56.2812 19.1895 55.707 19.166C53.9727 19.1191 52.6484 19.7168 51.7344 20.959L49.5898 33H43.8066L47.1113 13.9805L52.5078 13.9629L52.0684 16.459C53.3105 14.5371 54.7754 13.5762 56.4629 13.5762C56.9434 13.5762 57.541 13.6582 58.2559 13.8223L57.5 19.3418ZM66.1133 25.8809L70.877 13.9805H77.1172L68.1172 33H62.2285L59.1875 13.9805H65.1289L66.1133 25.8809ZM81.8281 33H76.0273L79.332 13.9805H85.1328L81.8281 33ZM79.8418 9.18164C79.8184 8.32617 80.1172 7.61133 80.7383 7.03711C81.3711 6.46289 82.1328 6.17578 83.0234 6.17578C83.9258 6.17578 84.6758 6.43359 85.2734 6.94922C85.8828 7.46484 86.1992 8.13867 86.2227 8.9707C86.2461 9.83789 85.9473 10.5586 85.3262 11.1328C84.7051 11.6953 83.9434 11.9766 83.041 11.9766C82.1621 11.9766 81.4121 11.7246 80.791 11.2207C80.1816 10.7051 79.8652 10.0254 79.8418 9.18164ZM94.3086 28.7988C95.1406 28.8223 95.791 28.5938 96.2598 28.1133C96.7285 27.6211 97.0273 26.9883 97.1562 26.2148L102.57 26.1973C102.5 27.5918 102.084 28.8398 101.322 29.9414C100.572 31.043 99.5527 31.8984 98.2637 32.5078C96.9863 33.1055 95.6152 33.3867 94.1504 33.3516C91.6191 33.3047 89.668 32.3965 88.2969 30.627C86.9258 28.8457 86.3691 26.5488 86.627 23.7363L86.6797 23.3145C86.8906 21.3926 87.4297 19.6934 88.2969 18.2168C89.1641 16.7285 90.3008 15.5801 91.707 14.7715C93.125 13.9629 94.707 13.582 96.4531 13.6289C98.668 13.6758 100.414 14.3848 101.691 15.7559C102.98 17.1152 103.602 18.9551 103.555 21.2754L98.1406 21.2578C98.1992 19.2422 97.4785 18.2168 95.9785 18.1816C93.9395 18.1113 92.7676 19.8281 92.4629 23.332L92.3047 25.125L92.2871 25.793C92.2871 27.7617 92.9609 28.7637 94.3086 28.7988ZM113.275 33.3516C111.576 33.3398 110.059 32.9414 108.723 32.1562C107.398 31.3594 106.396 30.2578 105.717 28.8516C105.037 27.4336 104.768 25.875 104.908 24.1758L104.961 23.6836C105.277 20.5547 106.361 18.082 108.213 16.2656C110.076 14.4375 112.355 13.5586 115.051 13.6289C116.68 13.6523 118.074 14.0684 119.234 14.877C120.395 15.6738 121.244 16.7812 121.783 18.1992C122.322 19.6055 122.498 21.1875 122.311 22.9453L121.977 25.3535H110.656C110.68 26.3496 110.961 27.1582 111.5 27.7793C112.039 28.4004 112.824 28.7285 113.855 28.7637C115.531 28.8105 117.037 28.166 118.373 26.8301L120.799 30.0469C120.084 31.0664 119.082 31.8691 117.793 32.4551C116.516 33.0293 115.115 33.3281 113.592 33.3516H113.275ZM114.682 18.1816C113.861 18.1582 113.146 18.416 112.537 18.9551C111.939 19.4941 111.418 20.3965 110.973 21.6621H116.756L116.861 21.1523C116.932 20.7422 116.943 20.3555 116.896 19.9922C116.697 18.8203 115.959 18.2168 114.682 18.1816Z" fill="#E01B22"/>
<path d="M22.8867 29.8359C21.9375 30.8906 20.5488 31.7402 18.7207 32.3848C16.8926 33.0293 14.8887 33.3516 12.709 33.3516C9.35742 33.3516 6.67969 32.3262 4.67578 30.2754C2.67188 28.2246 1.59961 25.3711 1.45898 21.7148L1.44141 19.5C1.44141 16.9805 1.88672 14.7832 2.77734 12.9082C3.66797 11.0215 4.93945 9.57422 6.5918 8.56641C8.25586 7.54688 10.1777 7.03711 12.3574 7.03711C15.5449 7.03711 18.0176 7.76953 19.7754 9.23438C21.5449 10.6875 22.5762 12.8613 22.8691 15.7559H16.9277C16.7168 14.3262 16.2598 13.3066 15.5566 12.6973C14.8535 12.0879 13.8574 11.7832 12.5684 11.7832C11.0215 11.7832 9.82617 12.4395 8.98242 13.752C8.13867 15.0645 7.71094 16.9395 7.69922 19.377V20.9238C7.69922 23.4785 8.13281 25.4004 9 26.6895C9.87891 27.9668 11.2559 28.6055 13.1309 28.6055C14.7363 28.6055 15.9316 28.248 16.7168 27.5332V23.5605H12.4277V19.3242H22.8867V29.8359ZM41.0098 28.2188H32.5547L31.0781 33H24.4863L33.873 7.40625H39.6738L49.1309 33H42.5039L41.0098 28.2188ZM34.0312 23.4551H39.5332L36.7734 14.5781L34.0312 23.4551Z" fill="#1E3278"/>
<path d="M61.2212 43.4087C61.0754 43.616 60.8464 43.7778 60.5342 43.894C60.2243 44.0103 59.8768 44.0684 59.4917 44.0684C59.1021 44.0684 58.7557 43.9749 58.4526 43.7881C58.1496 43.6012 57.9149 43.3369 57.7485 42.9951C57.5822 42.6533 57.4979 42.2614 57.4956 41.8193V41.1904C57.4956 40.5 57.6699 39.9554 58.0186 39.5566C58.3672 39.1556 58.8354 38.9551 59.4233 38.9551C59.936 38.9551 60.3485 39.0861 60.6606 39.3481C60.9728 39.6079 61.1585 39.9668 61.2178 40.4248H60.7974C60.7358 40.0602 60.5866 39.7845 60.3496 39.5977C60.1149 39.4085 59.8073 39.314 59.4268 39.314C58.9619 39.314 58.5939 39.4792 58.3228 39.8096C58.0516 40.14 57.916 40.606 57.916 41.2075V41.7954C57.916 42.1737 57.9798 42.5086 58.1074 42.8003C58.2373 43.0897 58.4219 43.3141 58.6611 43.4736C58.9027 43.6331 59.1795 43.7129 59.4917 43.7129C59.854 43.7129 60.165 43.6559 60.4248 43.542C60.5934 43.4668 60.7188 43.3791 60.8008 43.2788V41.9937H59.4644V41.6382H61.2212V43.4087ZM63.7505 44.0684C63.436 44.0684 63.1512 43.9909 62.896 43.8359C62.6431 43.681 62.446 43.4657 62.3047 43.1899C62.1634 42.9119 62.0928 42.6009 62.0928 42.2568V42.1099C62.0928 41.7544 62.1611 41.4342 62.2979 41.1494C62.4368 40.8646 62.6294 40.6413 62.8755 40.4795C63.1216 40.3154 63.3882 40.2334 63.6753 40.2334C64.1242 40.2334 64.4797 40.3872 64.7417 40.6948C65.006 41.0002 65.1382 41.4183 65.1382 41.9492V42.1782H62.4995V42.2568C62.4995 42.6761 62.6191 43.0259 62.8584 43.3062C63.0999 43.5841 63.403 43.7231 63.7676 43.7231C63.9863 43.7231 64.1789 43.6833 64.3452 43.6035C64.5138 43.5238 64.6665 43.3962 64.8032 43.2207L65.0596 43.4155C64.7588 43.8507 64.3224 44.0684 63.7505 44.0684ZM63.6753 40.582C63.3677 40.582 63.1079 40.6948 62.896 40.9204C62.6864 41.146 62.5588 41.4491 62.5132 41.8296H64.7314V41.7852C64.7201 41.4297 64.6187 41.1403 64.4272 40.917C64.2358 40.6937 63.9852 40.582 63.6753 40.582ZM66.3242 40.3018L66.3379 40.9341C66.4769 40.7062 66.6501 40.533 66.8574 40.4146C67.0648 40.2938 67.2938 40.2334 67.5444 40.2334C67.9409 40.2334 68.236 40.3451 68.4297 40.5684C68.6234 40.7917 68.7214 41.1266 68.7236 41.5732V44H68.3169V41.5698C68.3146 41.2394 68.244 40.9933 68.105 40.8315C67.9683 40.6698 67.7484 40.5889 67.4453 40.5889C67.1924 40.5889 66.9679 40.6686 66.772 40.8281C66.5783 40.9854 66.4347 41.1984 66.3413 41.4673V44H65.9346V40.3018H66.3242ZM71.2153 44.0684C70.9009 44.0684 70.616 43.9909 70.3608 43.8359C70.1079 43.681 69.9108 43.4657 69.7695 43.1899C69.6283 42.9119 69.5576 42.6009 69.5576 42.2568V42.1099C69.5576 41.7544 69.626 41.4342 69.7627 41.1494C69.9017 40.8646 70.0942 40.6413 70.3403 40.4795C70.5864 40.3154 70.853 40.2334 71.1401 40.2334C71.589 40.2334 71.9445 40.3872 72.2065 40.6948C72.4709 41.0002 72.603 41.4183 72.603 41.9492V42.1782H69.9644V42.2568C69.9644 42.6761 70.084 43.0259 70.3232 43.3062C70.5648 43.5841 70.8678 43.7231 71.2324 43.7231C71.4512 43.7231 71.6437 43.6833 71.8101 43.6035C71.9787 43.5238 72.1313 43.3962 72.2681 43.2207L72.5244 43.4155C72.2236 43.8507 71.7873 44.0684 71.2153 44.0684ZM71.1401 40.582C70.8325 40.582 70.5728 40.6948 70.3608 40.9204C70.1512 41.146 70.0236 41.4491 69.978 41.8296H72.1963V41.7852C72.1849 41.4297 72.0835 41.1403 71.8921 40.917C71.7007 40.6937 71.45 40.582 71.1401 40.582ZM75.1084 40.6504C75.0218 40.6344 74.9295 40.6265 74.8315 40.6265C74.5763 40.6265 74.3599 40.6982 74.1821 40.8418C74.0067 40.9831 73.8813 41.1893 73.8062 41.4604V44H73.3994V40.3018H73.7993L73.8062 40.8896C74.0226 40.4521 74.3701 40.2334 74.8486 40.2334C74.9626 40.2334 75.0526 40.2482 75.1187 40.2778L75.1084 40.6504ZM77.9556 44C77.9146 43.8838 77.8883 43.7118 77.877 43.4839C77.7334 43.6707 77.55 43.8154 77.3267 43.918C77.1056 44.0182 76.8709 44.0684 76.6226 44.0684C76.2671 44.0684 75.9788 43.9692 75.7578 43.771C75.5391 43.5728 75.4297 43.3221 75.4297 43.019C75.4297 42.659 75.5789 42.3742 75.8774 42.1646C76.1782 41.9549 76.5964 41.8501 77.1318 41.8501H77.8735V41.4297C77.8735 41.1654 77.7915 40.958 77.6274 40.8076C77.4657 40.6549 77.2287 40.5786 76.9165 40.5786C76.6317 40.5786 76.3958 40.6515 76.209 40.7974C76.0221 40.9432 75.9287 41.1187 75.9287 41.3237L75.5186 41.3203C75.5186 41.0264 75.6553 40.7723 75.9287 40.5581C76.2021 40.3416 76.5382 40.2334 76.937 40.2334C77.3494 40.2334 77.6742 40.3371 77.9111 40.5444C78.1504 40.7495 78.2734 41.0366 78.2803 41.4058V43.1558C78.2803 43.5135 78.3179 43.7812 78.3931 43.959V44H77.9556ZM76.6704 43.7061C76.9438 43.7061 77.1877 43.64 77.4019 43.5078C77.6183 43.3757 77.7756 43.1991 77.8735 42.978V42.1646H77.1421C76.7342 42.1691 76.4152 42.2443 76.1851 42.3901C75.9549 42.5337 75.8398 42.7319 75.8398 42.9849C75.8398 43.1922 75.9162 43.3643 76.0688 43.501C76.2238 43.6377 76.4243 43.7061 76.6704 43.7061ZM79.832 44H79.4219V38.75H79.832V44ZM85.4307 42.6055H83.1714L82.6587 44H82.2178L84.1011 39.0234H84.501L86.3843 44H85.9468L85.4307 42.6055ZM83.3013 42.2466H85.2974L84.2993 39.5361L83.3013 42.2466ZM87.3174 44V40.6367H86.7056V40.3018H87.3174V39.854C87.3174 39.4757 87.4131 39.1852 87.6045 38.9824C87.7982 38.7796 88.0671 38.6782 88.4111 38.6782C88.5661 38.6782 88.7108 38.6976 88.8452 38.7363L88.8145 39.0781C88.7005 39.0508 88.5763 39.0371 88.4419 39.0371C88.2163 39.0371 88.0409 39.1077 87.9155 39.249C87.7902 39.388 87.7275 39.5863 87.7275 39.8438V40.3018H88.6094V40.6367H87.7275V44H87.3174ZM89.6348 44V40.6367H89.0229V40.3018H89.6348V39.854C89.6348 39.4757 89.7305 39.1852 89.9219 38.9824C90.1156 38.7796 90.3844 38.6782 90.7285 38.6782C90.8835 38.6782 91.0282 38.6976 91.1626 38.7363L91.1318 39.0781C91.0179 39.0508 90.8937 39.0371 90.7593 39.0371C90.5337 39.0371 90.3582 39.1077 90.2329 39.249C90.1076 39.388 90.0449 39.5863 90.0449 39.8438V40.3018H90.9268V40.6367H90.0449V44H89.6348ZM93.9927 44C93.9517 43.8838 93.9255 43.7118 93.9141 43.4839C93.7705 43.6707 93.5871 43.8154 93.3638 43.918C93.1427 44.0182 92.908 44.0684 92.6597 44.0684C92.3042 44.0684 92.016 43.9692 91.7949 43.771C91.5762 43.5728 91.4668 43.3221 91.4668 43.019C91.4668 42.659 91.616 42.3742 91.9146 42.1646C92.2153 41.9549 92.6335 41.8501 93.1689 41.8501H93.9106V41.4297C93.9106 41.1654 93.8286 40.958 93.6646 40.8076C93.5028 40.6549 93.2658 40.5786 92.9536 40.5786C92.6688 40.5786 92.4329 40.6515 92.2461 40.7974C92.0592 40.9432 91.9658 41.1187 91.9658 41.3237L91.5557 41.3203C91.5557 41.0264 91.6924 40.7723 91.9658 40.5581C92.2393 40.3416 92.5754 40.2334 92.9741 40.2334C93.3866 40.2334 93.7113 40.3371 93.9482 40.5444C94.1875 40.7495 94.3105 41.0366 94.3174 41.4058V43.1558C94.3174 43.5135 94.355 43.7812 94.4302 43.959V44H93.9927ZM92.7075 43.7061C92.981 43.7061 93.2248 43.64 93.439 43.5078C93.6554 43.3757 93.8127 43.1991 93.9106 42.978V42.1646H93.1792C92.7713 42.1691 92.4523 42.2443 92.2222 42.3901C91.992 42.5337 91.877 42.7319 91.877 42.9849C91.877 43.1922 91.9533 43.3643 92.106 43.501C92.2609 43.6377 92.4614 43.7061 92.7075 43.7061ZM95.8691 44H95.459V40.3018H95.8691V44ZM95.3872 39.2319C95.3872 39.1545 95.4123 39.0895 95.4624 39.0371C95.5125 38.9824 95.5809 38.9551 95.6675 38.9551C95.7541 38.9551 95.8224 38.9824 95.8726 39.0371C95.925 39.0895 95.9512 39.1545 95.9512 39.2319C95.9512 39.3094 95.925 39.3743 95.8726 39.4268C95.8224 39.4792 95.7541 39.5054 95.6675 39.5054C95.5809 39.5054 95.5125 39.4792 95.4624 39.4268C95.4123 39.3743 95.3872 39.3094 95.3872 39.2319ZM98.6924 40.6504C98.6058 40.6344 98.5135 40.6265 98.4155 40.6265C98.1603 40.6265 97.9438 40.6982 97.7661 40.8418C97.5907 40.9831 97.4653 41.1893 97.3901 41.4604V44H96.9834V40.3018H97.3833L97.3901 40.8896C97.6066 40.4521 97.9541 40.2334 98.4326 40.2334C98.5465 40.2334 98.6366 40.2482 98.7026 40.2778L98.6924 40.6504ZM103.956 42.7764C103.956 42.5007 103.859 42.283 103.666 42.1235C103.472 41.9618 103.118 41.8091 102.603 41.6655C102.088 41.5197 101.712 41.3613 101.475 41.1904C101.137 40.9489 100.969 40.6322 100.969 40.2402C100.969 39.8597 101.125 39.5509 101.437 39.314C101.751 39.0747 102.153 38.9551 102.64 38.9551C102.971 38.9551 103.266 39.0189 103.525 39.1465C103.787 39.2741 103.99 39.4518 104.134 39.6797C104.277 39.9076 104.349 40.1616 104.349 40.4419H103.925C103.925 40.1024 103.809 39.8301 103.577 39.625C103.344 39.4176 103.032 39.314 102.64 39.314C102.26 39.314 101.957 39.3994 101.731 39.5703C101.505 39.7389 101.393 39.96 101.393 40.2334C101.393 40.4863 101.494 40.6925 101.697 40.8521C101.9 41.0116 102.224 41.1528 102.671 41.2759C103.118 41.3966 103.456 41.5231 103.686 41.6553C103.916 41.7852 104.089 41.9412 104.206 42.1235C104.322 42.3058 104.38 42.5212 104.38 42.7695C104.38 43.1615 104.223 43.4759 103.908 43.7129C103.596 43.9499 103.184 44.0684 102.671 44.0684C102.32 44.0684 101.998 44.0057 101.704 43.8804C101.412 43.755 101.19 43.5796 101.037 43.354C100.887 43.1284 100.812 42.8698 100.812 42.5781H101.232C101.232 42.929 101.363 43.2059 101.625 43.4087C101.887 43.6115 102.236 43.7129 102.671 43.7129C103.058 43.7129 103.369 43.6274 103.604 43.4565C103.839 43.2856 103.956 43.0589 103.956 42.7764ZM106.625 44.0684C106.311 44.0684 106.026 43.9909 105.771 43.8359C105.518 43.681 105.321 43.4657 105.18 43.1899C105.038 42.9119 104.968 42.6009 104.968 42.2568V42.1099C104.968 41.7544 105.036 41.4342 105.173 41.1494C105.312 40.8646 105.504 40.6413 105.75 40.4795C105.997 40.3154 106.263 40.2334 106.55 40.2334C106.999 40.2334 107.355 40.3872 107.617 40.6948C107.881 41.0002 108.013 41.4183 108.013 41.9492V42.1782H105.375V42.2568C105.375 42.6761 105.494 43.0259 105.733 43.3062C105.975 43.5841 106.278 43.7231 106.643 43.7231C106.861 43.7231 107.054 43.6833 107.22 43.6035C107.389 43.5238 107.542 43.3962 107.678 43.2207L107.935 43.4155C107.634 43.8507 107.197 44.0684 106.625 44.0684ZM106.55 40.582C106.243 40.582 105.983 40.6948 105.771 40.9204C105.561 41.146 105.434 41.4491 105.388 41.8296H107.606V41.7852C107.595 41.4297 107.494 41.1403 107.302 40.917C107.111 40.6937 106.86 40.582 106.55 40.582ZM110.519 40.6504C110.432 40.6344 110.34 40.6265 110.242 40.6265C109.986 40.6265 109.77 40.6982 109.592 40.8418C109.417 40.9831 109.292 41.1893 109.216 41.4604V44H108.81V40.3018H109.209L109.216 40.8896C109.433 40.4521 109.78 40.2334 110.259 40.2334C110.373 40.2334 110.463 40.2482 110.529 40.2778L110.519 40.6504ZM112.381 43.436L113.506 40.3018H113.926L112.545 44H112.214L110.826 40.3018H111.247L112.381 43.436ZM115.058 44H114.647V40.3018H115.058V44ZM114.576 39.2319C114.576 39.1545 114.601 39.0895 114.651 39.0371C114.701 38.9824 114.769 38.9551 114.856 38.9551C114.943 38.9551 115.011 38.9824 115.061 39.0371C115.113 39.0895 115.14 39.1545 115.14 39.2319C115.14 39.3094 115.113 39.3743 115.061 39.4268C115.011 39.4792 114.943 39.5054 114.856 39.5054C114.769 39.5054 114.701 39.4792 114.651 39.4268C114.601 39.3743 114.576 39.3094 114.576 39.2319ZM117.539 43.7231C117.824 43.7231 118.062 43.6434 118.253 43.4839C118.447 43.3221 118.552 43.1136 118.568 42.8584H118.961C118.95 43.084 118.879 43.2902 118.749 43.4771C118.619 43.6616 118.446 43.8063 118.229 43.9111C118.015 44.016 117.785 44.0684 117.539 44.0684C117.054 44.0684 116.669 43.8997 116.384 43.5625C116.101 43.2253 115.96 42.7718 115.96 42.2021V42.0791C115.96 41.7145 116.024 41.3921 116.151 41.1118C116.279 40.8315 116.461 40.6151 116.698 40.4624C116.938 40.3097 117.217 40.2334 117.536 40.2334C117.941 40.2334 118.275 40.3542 118.537 40.5957C118.801 40.8372 118.943 41.1551 118.961 41.5493H118.568C118.55 41.2599 118.445 41.0264 118.253 40.8486C118.064 40.6709 117.825 40.582 117.536 40.582C117.167 40.582 116.879 40.7153 116.674 40.9819C116.472 41.2485 116.37 41.6222 116.37 42.103V42.2227C116.37 42.6943 116.472 43.0623 116.674 43.3267C116.879 43.591 117.168 43.7231 117.539 43.7231ZM121.213 44.0684C120.899 44.0684 120.614 43.9909 120.359 43.8359C120.106 43.681 119.909 43.4657 119.768 43.1899C119.626 42.9119 119.556 42.6009 119.556 42.2568V42.1099C119.556 41.7544 119.624 41.4342 119.761 41.1494C119.9 40.8646 120.092 40.6413 120.338 40.4795C120.584 40.3154 120.851 40.2334 121.138 40.2334C121.587 40.2334 121.943 40.3872 122.205 40.6948C122.469 41.0002 122.601 41.4183 122.601 41.9492V42.1782H119.962V42.2568C119.962 42.6761 120.082 43.0259 120.321 43.3062C120.563 43.5841 120.866 43.7231 121.23 43.7231C121.449 43.7231 121.642 43.6833 121.808 43.6035C121.977 43.5238 122.129 43.3962 122.266 43.2207L122.522 43.4155C122.222 43.8507 121.785 44.0684 121.213 44.0684ZM121.138 40.582C120.831 40.582 120.571 40.6948 120.359 40.9204C120.149 41.146 120.022 41.4491 119.976 41.8296H122.194V41.7852C122.183 41.4297 122.082 41.1403 121.89 40.917C121.699 40.6937 121.448 40.582 121.138 40.582Z" fill="#333333"/>
</svg>
